<svg xmlns="http://www.w3.org/2000/svg" width="760" height="180" viewBox="0 0 760 180" preserveAspectRatio="xMidYMid slice">
  <defs>
    <linearGradient id="sky" x2="0" y2="1">
      <stop stop-color="#f5f8f4"/>
      <stop offset="1" stop-color="#e8f1e8"/>
    </linearGradient>
    <linearGradient id="ridge" x2="0" y2="1">
      <stop stop-color="#d9e8db"/>
      <stop offset="1" stop-color="#bfd7c6"/>
    </linearGradient>
  </defs>
  <rect width="760" height="180" fill="url(#sky)"/>
  <path d="M0 55c21 2 36-35 63-32 25 3 34 46 55 46 10 0 22-16 36-16 18 0 30 23 48 27 16 4 34-17 52-17 28 0 38 28 62 28 22 0 36-20 57-20 26 0 38 21 59 21 23 0 34-28 61-28 21 0 33 25 55 25 20 0 35-20 57-20 23 0 38 25 58 25 22 0 36-18 55-18 26 0 35 24 59 24v80H0Z" fill="#e1ece2" opacity=".62"/>
  <path d="M0 105c36-25 49-19 72-42 14-13 28-17 42-11 20 9 22 32 46 40 30 11 52-10 78-4 22 5 30 24 55 29 27 5 40-15 64-15 22 0 34 14 55 16 28 3 43-21 71-17 29 4 37 27 64 28 30 0 37-21 63-20 28 0 39 23 63 25 29 2 47-20 73-16 17 3 27 16 41 15v47H0Z" fill="#d6e6d9" opacity=".62"/>
  <path d="M0 130c24-16 47-8 64-23 22-20 35-15 53-5 19 10 32 33 52 31 16-2 26-15 40-14 19 1 31 25 52 24 14-1 20-18 38-19 15-1 23 18 41 18 18 0 28-23 49-25 19-2 28 18 46 17 19-2 29-26 48-24 19 1 26 20 44 20 17 0 32-20 52-20 27 0 39 24 59 24 20 0 30-28 51-28 17 0 27 18 43 17 16-1 23-15 39-16 18-1 27 20 39 22v51H0Z" fill="url(#ridge)" opacity=".52"/>
  <path d="M0 153c28-14 41-4 61-15 24-13 35 14 56 13 17-1 29-12 47-10 17 2 24 19 45 18 18-1 29-16 47-14 15 1 27 16 46 17 19 0 30-17 48-17 23 0 31 19 54 18 24-2 31-18 50-18 22 0 30 21 54 19 17-2 28-19 45-17 19 1 24 15 44 17 20 1 34-15 56-15 19 0 28 13 46 13 23-1 37-18 60-13v31H0Z" fill="#bdd6c5" opacity=".55"/>
</svg>
